<mxfile host="app.diagrams.net" agent="Mozilla/5.0 (Windows NT 10.0; Win64; x64; rv:140.0) Gecko/20100101 Firefox/140.0" version="27.2.0">
  <diagram name="Strona-1" id="LE74Gdnp2hLeJ4BVk9jC">
    <mxGraphModel dx="1188" dy="749" grid="1" gridSize="10" guides="1" tooltips="1" connect="1" arrows="1" fold="1" page="1" pageScale="1" pageWidth="827" pageHeight="1169" math="0" shadow="0">
      <root>
        <mxCell id="0" />
        <mxCell id="1" parent="0" />
        <mxCell id="F_MHXSZo8XpEC62Zlxpp-19" value="" style="rounded=0;whiteSpace=wrap;html=1;dashed=1;dashPattern=8 8;fillColor=none;" parent="1" vertex="1">
          <mxGeometry x="130" y="210" width="160" height="320" as="geometry" />
        </mxCell>
        <mxCell id="F_MHXSZo8XpEC62Zlxpp-10" style="edgeStyle=orthogonalEdgeStyle;rounded=0;orthogonalLoop=1;jettySize=auto;html=1;entryX=0;entryY=0;entryDx=0;entryDy=0;startArrow=block;startFill=1;" parent="1" source="F_MHXSZo8XpEC62Zlxpp-1" target="F_MHXSZo8XpEC62Zlxpp-6" edge="1">
          <mxGeometry relative="1" as="geometry">
            <Array as="points">
              <mxPoint x="410" y="330" />
              <mxPoint x="410" y="342" />
            </Array>
          </mxGeometry>
        </mxCell>
        <mxCell id="F_MHXSZo8XpEC62Zlxpp-1" value="Windows 10 - VM" style="rounded=0;whiteSpace=wrap;html=1;fillColor=#76608a;fontColor=#ffffff;strokeColor=#432D57;" parent="1" vertex="1">
          <mxGeometry x="150" y="300" width="120" height="60" as="geometry" />
        </mxCell>
        <mxCell id="F_MHXSZo8XpEC62Zlxpp-12" style="edgeStyle=orthogonalEdgeStyle;rounded=0;orthogonalLoop=1;jettySize=auto;html=1;entryX=0.5;entryY=1;entryDx=0;entryDy=0;startArrow=blockThin;startFill=1;" parent="1" source="F_MHXSZo8XpEC62Zlxpp-2" target="F_MHXSZo8XpEC62Zlxpp-6" edge="1">
          <mxGeometry relative="1" as="geometry" />
        </mxCell>
        <mxCell id="F_MHXSZo8XpEC62Zlxpp-2" value="Windows 10 - komputer fizyczny" style="rounded=0;whiteSpace=wrap;html=1;fillColor=#f0a30a;fontColor=#000000;strokeColor=#BD7000;" parent="1" vertex="1">
          <mxGeometry x="150" y="450" width="120" height="60" as="geometry" />
        </mxCell>
        <mxCell id="F_MHXSZo8XpEC62Zlxpp-11" style="edgeStyle=orthogonalEdgeStyle;rounded=0;orthogonalLoop=1;jettySize=auto;html=1;entryX=0;entryY=1;entryDx=0;entryDy=0;startArrow=block;startFill=1;" parent="1" source="F_MHXSZo8XpEC62Zlxpp-3" target="F_MHXSZo8XpEC62Zlxpp-6" edge="1">
          <mxGeometry relative="1" as="geometry">
            <Array as="points">
              <mxPoint x="410" y="410" />
              <mxPoint x="410" y="398" />
            </Array>
          </mxGeometry>
        </mxCell>
        <mxCell id="F_MHXSZo8XpEC62Zlxpp-3" value="Ubuntu - komputer fizyczny" style="rounded=0;whiteSpace=wrap;html=1;fillColor=#f0a30a;fontColor=#000000;strokeColor=#BD7000;" parent="1" vertex="1">
          <mxGeometry x="150" y="380" width="120" height="60" as="geometry" />
        </mxCell>
        <mxCell id="F_MHXSZo8XpEC62Zlxpp-8" style="edgeStyle=orthogonalEdgeStyle;rounded=0;orthogonalLoop=1;jettySize=auto;html=1;entryX=0.5;entryY=0;entryDx=0;entryDy=0;startArrow=blockThin;startFill=1;" parent="1" source="F_MHXSZo8XpEC62Zlxpp-4" target="F_MHXSZo8XpEC62Zlxpp-6" edge="1">
          <mxGeometry relative="1" as="geometry" />
        </mxCell>
        <mxCell id="F_MHXSZo8XpEC62Zlxpp-4" value="Ubuntu - VM" style="rounded=0;whiteSpace=wrap;html=1;fillColor=#76608a;fontColor=#ffffff;strokeColor=#432D57;" parent="1" vertex="1">
          <mxGeometry x="150" y="230" width="120" height="60" as="geometry" />
        </mxCell>
        <mxCell id="F_MHXSZo8XpEC62Zlxpp-17" style="edgeStyle=orthogonalEdgeStyle;rounded=0;orthogonalLoop=1;jettySize=auto;html=1;startArrow=classic;startFill=1;" parent="1" source="F_MHXSZo8XpEC62Zlxpp-5" target="F_MHXSZo8XpEC62Zlxpp-6" edge="1">
          <mxGeometry relative="1" as="geometry" />
        </mxCell>
        <mxCell id="F_MHXSZo8XpEC62Zlxpp-22" style="edgeStyle=orthogonalEdgeStyle;rounded=0;orthogonalLoop=1;jettySize=auto;html=1;exitX=0.5;exitY=1;exitDx=0;exitDy=0;entryX=0.5;entryY=1;entryDx=0;entryDy=0;dashed=1;endArrow=classic;endFill=1;startArrow=classic;startFill=1;" parent="1" source="F_MHXSZo8XpEC62Zlxpp-5" target="F_MHXSZo8XpEC62Zlxpp-19" edge="1">
          <mxGeometry relative="1" as="geometry" />
        </mxCell>
        <mxCell id="F_MHXSZo8XpEC62Zlxpp-5" value="&lt;div&gt;Kali Linux (atakujący)&lt;/div&gt;" style="rounded=0;whiteSpace=wrap;html=1;fillColor=#e51400;fontColor=#ffffff;strokeColor=#B20000;" parent="1" vertex="1">
          <mxGeometry x="730" y="340" width="120" height="60" as="geometry" />
        </mxCell>
        <mxCell id="F_MHXSZo8XpEC62Zlxpp-6" value="&lt;div&gt;Router Wi-Fi&lt;/div&gt;" style="ellipse;whiteSpace=wrap;html=1;fillColor=#6d8764;fontColor=#ffffff;strokeColor=#3A5431;" parent="1" vertex="1">
          <mxGeometry x="414" y="330" width="120" height="80" as="geometry" />
        </mxCell>
        <mxCell id="F_MHXSZo8XpEC62Zlxpp-13" value="połączenie mostkowe" style="text;html=1;align=center;verticalAlign=middle;resizable=0;points=[];autosize=1;strokeColor=none;fillColor=none;" parent="1" vertex="1">
          <mxGeometry x="280" y="230" width="140" height="30" as="geometry" />
        </mxCell>
        <mxCell id="F_MHXSZo8XpEC62Zlxpp-14" value="połączenie mostkowe" style="text;html=1;align=center;verticalAlign=middle;resizable=0;points=[];autosize=1;strokeColor=none;fillColor=none;" parent="1" vertex="1">
          <mxGeometry x="280" y="300" width="140" height="30" as="geometry" />
        </mxCell>
        <mxCell id="F_MHXSZo8XpEC62Zlxpp-15" value="połączenie Wi-Fi" style="text;whiteSpace=wrap;html=1;" parent="1" vertex="1">
          <mxGeometry x="300" y="380" width="180" height="40" as="geometry" />
        </mxCell>
        <mxCell id="F_MHXSZo8XpEC62Zlxpp-16" value="połączenie Wi-Fi" style="text;whiteSpace=wrap;html=1;" parent="1" vertex="1">
          <mxGeometry x="300" y="450" width="180" height="40" as="geometry" />
        </mxCell>
        <mxCell id="F_MHXSZo8XpEC62Zlxpp-18" value="połączenie Wi-Fi" style="text;whiteSpace=wrap;html=1;" parent="1" vertex="1">
          <mxGeometry x="580" y="340" width="180" height="40" as="geometry" />
        </mxCell>
        <mxCell id="F_MHXSZo8XpEC62Zlxpp-24" value="" style="shape=mxgraph.mockup.markup.redX;fillColor=#ff0000;html=1;shadow=0;whiteSpace=wrap;strokeColor=none;connectable=0;" parent="1" vertex="1">
          <mxGeometry x="490" y="530" width="60" height="40" as="geometry" />
        </mxCell>
        <mxCell id="F_MHXSZo8XpEC62Zlxpp-30" value="Brak widoczności pakietów HTTP" style="text;whiteSpace=wrap;html=1;" parent="1" vertex="1">
          <mxGeometry x="565" y="520" width="210" height="40" as="geometry" />
        </mxCell>
      </root>
    </mxGraphModel>
  </diagram>
</mxfile>
